<svg id="Search_Icon" data-name="Search Icon" xmlns="http://www.w3.org/2000/svg" width="28.205" height="29.95" viewBox="0 0 28.205 29.95">
  <g id="Path_14" data-name="Path 14" fill="rgba(255,255,255,0)">
    <path d="M 12.5 21.5 C 7.537380218505859 21.5 3.5 17.46261978149414 3.5 12.5 C 3.5 7.537380218505859 7.537380218505859 3.5 12.5 3.5 C 17.46261978149414 3.5 21.5 7.537380218505859 21.5 12.5 C 21.5 17.46261978149414 17.46261978149414 21.5 12.5 21.5 Z" stroke="none"/>
    <path d="M 12.5 7 C 9.467288970947266 7 7 9.467288970947266 7 12.5 C 7 15.53271102905273 9.467288970947266 18 12.5 18 C 15.53271102905273 18 18 15.53271102905273 18 12.5 C 18 9.467288970947266 15.53271102905273 7 12.5 7 M 12.5 0 C 19.40355491638184 0 25 5.596445083618164 25 12.5 C 25 19.40355491638184 19.40355491638184 25 12.5 25 C 5.596445083618164 25 0 19.40355491638184 0 12.5 C 0 5.596445083618164 5.596445083618164 0 12.5 0 Z" stroke="none" fill="#000"/>
  </g>
  <path id="Path_15" data-name="Path 15" d="M4.5,4.5,0,0" transform="translate(18.755 20.5)" fill="none" stroke="#000" stroke-linecap="round" stroke-width="7"/>
</svg>
